<?xml version="1.0" encoding="UTF-8"?>
<!-- Generator: Adobe Illustrator 15.0.0, SVG Export Plug-In . SVG Version: 6.00 Build 0)  -->
<!DOCTYPE svg PUBLIC "-//W3C//DTD SVG 1.1//EN" "http://www.w3.org/Graphics/SVG/1.1/DTD/svg11.dtd">
<svg version="1.1" id="Ebene_1" xmlns="http://www.w3.org/2000/svg" xmlns:xlink="http://www.w3.org/1999/xlink" x="0px" y="0px" width="612px" height="579.415px" viewBox="0 106.077 612 579.415" enable-background="new 0 106.077 612 579.415" xml:space="preserve">
<rect x="-6.5" y="99.5" fill="#FFFFFF" width="640.036" height="607"/>
<g id="Standard">
	<desc>Master slide</desc>
	<g>
		<rect x="16.078" y="122.617" fill="none" width="579.911" height="546.83"/>
	</g>
</g>
<g id="page1">
	<desc>Slide</desc>
	<g>
		<desc>Drawing</desc>
		<g>
			<g>
				<path fill="#FFFFFF" d="M306,685.459H0V106.54h612v578.919H306z"/>
			</g>
			<g>
				<rect x="-0.463" y="106.077" fill="none" width="612.96" height="579.878"/>
			</g>
		</g>
	</g>
	<g>
		<desc>Drawing</desc>
		<g>
			<g>
				<path d="M166.63,131.086c0.099-0.132,0.231-0.231,0.43-0.231c0.166,0,0.331,0.1,0.431,0.231l-0.431,0.265L166.63,131.086z"/>
				<path d="M167.49,131.615L68.246,297.022l-0.43-0.265l-0.43-0.265l99.243-165.406l0.43,0.265L167.49,131.615z"/>
				<path d="M67.816,297.253L67.816,297.253c-0.265,0-0.496-0.231-0.496-0.496c0-0.1,0.033-0.166,0.066-0.265l0.43,0.265V297.253z"/>
				<path d="M67.816,296.26h198.486v0.497v0.496H67.816v-0.496V296.26z"/>
				<path d="M266.733,296.492c0.032,0.065,0.065,0.165,0.065,0.265c0,0.265-0.231,0.496-0.496,0.496v-0.496L266.733,296.492z"/>
				<path d="M265.873,296.989L166.63,131.615l0.43-0.265l0.431-0.265l99.243,165.406l-0.431,0.265L265.873,296.989z"/>
			</g>
		</g>
	</g>
	<g>
		<desc>Drawing</desc>
		<g>
			<g>
				<path fill="#99CCFF" d="M80.221,313.297H67.816v-16.54h24.811v16.54H80.221z"/>
			</g>
			<g>
				<path d="M80.221,313.793H67.816v-0.496v-0.496h12.405v0.496V313.793z"/>
				<path d="M67.816,313.793c-0.265,0-0.496-0.231-0.496-0.496h0.496V313.793z"/>
				<path d="M67.32,313.297v-16.54h0.496h0.496v16.54h-0.496H67.32z"/>
				<path d="M67.32,296.757c0-0.265,0.231-0.497,0.496-0.497v0.497H67.32z"/>
				<path d="M67.816,296.26h24.811v0.497v0.496H67.816v-0.496V296.26z"/>
				<path d="M92.627,296.26c0.265,0,0.496,0.232,0.496,0.497h-0.496V296.26z"/>
				<path d="M93.123,296.757v16.54h-0.496h-0.496v-16.54h0.496H93.123z"/>
				<path d="M93.123,313.297c0,0.265-0.231,0.496-0.496,0.496v-0.496H93.123z"/>
				<path d="M92.627,313.793H80.221v-0.496v-0.496h12.405v0.496V313.793z"/>
			</g>
			<g>
				<g>
					<g>
						<text transform="matrix(1, 0, 0, 1, 74.3997, 312.338)" font-family="'ArialMT'" font-size="21.0065">u</text>
					</g>
				</g>
			</g>
		</g>
	</g>
	<g>
		<desc>Drawing</desc>
		<g>
			<g>
				<path fill="#FFFFCC" d="M117.438,313.297H92.627v-16.54h49.622v16.54H117.438z"/>
			</g>
			<g>
				<path d="M117.438,313.793H92.627v-0.496v-0.496h24.812v0.496V313.793z"/>
				<path d="M92.627,313.793c-0.265,0-0.496-0.231-0.496-0.496h0.496V313.793z"/>
				<path d="M92.131,313.297v-16.54h0.496h0.496v16.54h-0.496H92.131z"/>
				<path d="M92.131,296.757c0-0.265,0.231-0.497,0.496-0.497v0.497H92.131z"/>
				<path d="M92.627,296.26h49.622v0.497v0.496H92.627v-0.496V296.26z"/>
				<path d="M142.249,296.26c0.265,0,0.496,0.232,0.496,0.497h-0.496V296.26z"/>
				<path d="M142.745,296.757v16.54h-0.496h-0.496v-16.54h0.496H142.745z"/>
				<path d="M142.745,313.297c0,0.265-0.231,0.496-0.496,0.496v-0.496H142.745z"/>
				<path d="M142.249,313.793h-24.811v-0.496v-0.496h24.811v0.496V313.793z"/>
			</g>
			<g>
				<g>
					<g>
						<text transform="matrix(1, 0, 0, 1, 112.178, 312.338)" font-family="'ArialMT'" font-size="21.0065">v</text>
					</g>
				</g>
			</g>
		</g>
	</g>
	<g>
		<desc>Drawing</desc>
		<g>
			<g>
				<path fill="#CCFFFF" d="M162.925,313.297h-20.676v-16.54H183.6v16.54H162.925z"/>
			</g>
			<g>
				<path d="M162.925,313.793h-20.676v-0.496v-0.496h20.676v0.496V313.793z"/>
				<path d="M142.249,313.793c-0.265,0-0.496-0.231-0.496-0.496h0.496V313.793z"/>
				<path d="M141.753,313.297v-16.54h0.496h0.496v16.54h-0.496H141.753z"/>
				<path d="M141.753,296.757c0-0.265,0.231-0.497,0.496-0.497v0.497H141.753z"/>
				<path d="M142.249,296.26H183.6v0.497v0.496h-41.352v-0.496V296.26z"/>
				<path d="M183.6,296.26c0.265,0,0.496,0.232,0.496,0.497H183.6V296.26z"/>
				<path d="M184.096,296.757v16.54H183.6h-0.496v-16.54h0.496H184.096z"/>
				<path d="M184.096,313.297c0,0.265-0.231,0.496-0.496,0.496v-0.496H184.096z"/>
				<path d="M183.6,313.793h-20.676v-0.496v-0.496H183.6v0.496V313.793z"/>
			</g>
			<g>
				<g>
					<g>
						<text transform="matrix(1, 0, 0, 1, 155.581, 312.338)" font-family="'ArialMT'" font-size="21.0065">w</text>
					</g>
				</g>
			</g>
		</g>
	</g>
	<g>
		<desc>Drawing</desc>
		<g>
			<g>
				<path fill="#FFFFCC" d="M196.006,313.297H183.6v-16.54h24.811v16.54H196.006z"/>
			</g>
			<g>
				<path d="M196.006,313.793H183.6v-0.496v-0.496h12.405v0.496V313.793z"/>
				<path d="M183.6,313.793c-0.265,0-0.496-0.231-0.496-0.496h0.496V313.793z"/>
				<path d="M183.104,313.297v-16.54h0.496h0.496v16.54H183.6H183.104z"/>
				<path d="M183.104,296.757c0-0.265,0.231-0.497,0.496-0.497v0.497H183.104z"/>
				<path d="M183.6,296.26h24.811v0.497v0.496H183.6v-0.496V296.26z"/>
				<path d="M208.411,296.26c0.265,0,0.496,0.232,0.496,0.497h-0.496V296.26z"/>
				<path d="M208.907,296.757v16.54h-0.496h-0.496v-16.54h0.496H208.907z"/>
				<path d="M208.907,313.297c0,0.265-0.231,0.496-0.496,0.496v-0.496H208.907z"/>
				<path d="M208.411,313.793h-12.405v-0.496v-0.496h12.405v0.496V313.793z"/>
			</g>
			<g>
				<g>
					<g>
						<text transform="matrix(1, 0, 0, 1, 190.812, 312.338)" font-family="'ArialMT'" font-size="21.0065">x</text>
					</g>
				</g>
			</g>
		</g>
	</g>
	<g>
		<desc>Drawing</desc>
		<g>
			<g>
				<path fill="#99CCFF" d="M237.357,313.297h-28.946v-16.54h57.892v16.54H237.357z"/>
			</g>
			<g>
				<path d="M237.357,313.793h-28.946v-0.496v-0.496h28.946v0.496V313.793z"/>
				<path d="M208.411,313.793c-0.265,0-0.496-0.231-0.496-0.496h0.496V313.793z"/>
				<path d="M207.915,313.297v-16.54h0.496h0.496v16.54h-0.496H207.915z"/>
				<path d="M207.915,296.757c0-0.265,0.231-0.497,0.496-0.497v0.497H207.915z"/>
				<path d="M208.411,296.26h57.892v0.497v0.496h-57.892v-0.496V296.26z"/>
				<path d="M266.302,296.26c0.265,0,0.496,0.232,0.496,0.497h-0.496V296.26z"/>
				<path d="M266.799,296.757v16.54h-0.496h-0.496v-16.54h0.496H266.799z"/>
				<path d="M266.799,313.297c0,0.265-0.231,0.496-0.496,0.496v-0.496H266.799z"/>
				<path d="M266.302,313.793h-28.945v-0.496v-0.496h28.945v0.496V313.793z"/>
			</g>
			<g>
				<g>
					<g>
						<text transform="matrix(1, 0, 0, 1, 232.262, 312.338)" font-family="'ArialMT'" font-size="21.0065">y</text>
					</g>
				</g>
			</g>
		</g>
	</g>
	<g>
		<desc>Drawing</desc>
		<g>
			<g>
				<path fill="#FFFFCC" d="M150.519,200.259l57.892,96.465H92.627L150.519,200.259z"/>
			</g>
			<g>
				<path d="M150.089,200.028c0.1-0.165,0.265-0.265,0.431-0.265c0.198,0,0.363,0.1,0.43,0.265l-0.43,0.231L150.089,200.028z"/>
				<path d="M150.949,200.524l-57.892,96.465l-0.431-0.265l-0.43-0.231l57.892-96.465l0.431,0.231L150.949,200.524z"/>
				<path d="M92.627,297.22L92.627,297.22c-0.265,0-0.496-0.198-0.496-0.496c0-0.066,0.033-0.166,0.066-0.231l0.43,0.231V297.22z"/>
				<path d="M92.627,296.228h115.784v0.496v0.496H92.627v-0.496V296.228z"/>
				<path d="M208.841,296.492c0.033,0.065,0.066,0.132,0.066,0.231c0,0.298-0.198,0.496-0.496,0.496v-0.496L208.841,296.492z"/>
				<path d="M207.981,296.989l-57.893-96.465l0.431-0.265l0.43-0.231l57.892,96.465l-0.43,0.231L207.981,296.989z"/>
			</g>
		</g>
	</g>
	<g>
		<desc>Drawing</desc>
		<g>
			<g>
				<path fill="#CCFFFF" d="M162.925,262.286l20.676,34.471h-41.352L162.925,262.286z"/>
			</g>
			<g>
				<path d="M162.494,262.022c0.1-0.133,0.232-0.231,0.431-0.231c0.165,0,0.331,0.099,0.43,0.231l-0.43,0.265L162.494,262.022z"/>
				<path d="M163.354,262.551l-20.676,34.471l-0.43-0.265l-0.431-0.265l20.676-34.471l0.431,0.265L163.354,262.551z"/>
				<path d="M142.249,297.253L142.249,297.253c-0.298,0-0.496-0.231-0.496-0.496c0-0.1,0-0.166,0.065-0.265l0.431,0.265V297.253z"/>
				<path d="M142.249,296.26H183.6v0.497v0.496h-41.352v-0.496V296.26z"/>
				<path d="M184.03,296.492c0.033,0.065,0.066,0.165,0.066,0.265c0,0.265-0.231,0.496-0.496,0.496v-0.496L184.03,296.492z"/>
				<path d="M183.17,296.989l-20.676-34.438l0.431-0.265l0.43-0.265l20.676,34.471l-0.43,0.265L183.17,296.989z"/>
			</g>
		</g>
	</g>
	<g>
		<desc>Drawing</desc>
		<g>
			<g>
				<path d="M299.385,130.855c0.562,0,1.157,0.133,1.72,0.331l-0.165,0.463l-0.199,0.464c-0.43-0.166-0.893-0.265-1.355-0.265      v-0.497V130.855z"/>
				<path d="M301.104,131.186c0.563,0.231,1.092,0.563,1.621,0.959l-0.298,0.397l-0.298,0.396c-0.463-0.363-0.926-0.628-1.39-0.826      l0.199-0.464L301.104,131.186z"/>
				<path d="M302.725,132.145c1.025,0.794,1.952,1.919,2.778,3.242l-0.43,0.265l-0.43,0.265c-0.729-1.257-1.588-2.282-2.515-2.978      l0.298-0.396L302.725,132.145z"/>
				<path d="M305.504,135.387c0.794,1.323,1.456,2.878,1.919,4.532l-0.463,0.133l-0.496,0.132c-0.431-1.555-1.059-3.011-1.819-4.268      l0.43-0.265L305.504,135.387z"/>
				<path d="M307.423,139.919c0.463,1.654,0.728,3.44,0.728,5.193h-0.496h-0.496c0-1.687-0.265-3.341-0.694-4.929l0.496-0.132      L307.423,139.919z"/>
				<path d="M308.15,145.113v55.146h-0.496h-0.496v-55.146h0.496H308.15z"/>
				<path d="M308.15,200.259c0,1.688,0.265,3.374,0.695,4.93l-0.496,0.132l-0.464,0.133c-0.463-1.654-0.728-3.408-0.728-5.194h0.496      H308.15z"/>
				<path d="M308.845,205.189c0.43,1.588,1.059,3.043,1.819,4.3l-0.431,0.265l-0.43,0.265c-0.794-1.356-1.455-2.878-1.919-4.564      l0.464-0.133L308.845,205.189z"/>
				<path d="M310.665,209.489c0.761,1.225,1.621,2.283,2.547,2.978l-0.298,0.397l-0.33,0.396c-0.993-0.794-1.952-1.919-2.779-3.242      l0.43-0.265L310.665,209.489z"/>
				<path d="M313.212,212.466c0.431,0.364,0.894,0.629,1.39,0.827l-0.198,0.463l-0.166,0.463c-0.562-0.231-1.124-0.562-1.653-0.959      l0.33-0.396L313.212,212.466z"/>
				<path d="M314.601,213.293c0.43,0.165,0.894,0.265,1.356,0.265v0.496v0.496c-0.596,0-1.158-0.132-1.721-0.331l0.166-0.463      L314.601,213.293z"/>
				<path d="M315.958,213.558c0.265,0,0.496,0.231,0.496,0.496s-0.231,0.496-0.496,0.496v-0.496V213.558z"/>
				<path d="M315.958,214.55c-0.463,0-0.927,0.1-1.356,0.265l-0.198-0.463l-0.166-0.463c0.563-0.199,1.125-0.331,1.721-0.331v0.496      V214.55z"/>
				<path d="M314.601,214.815c-0.496,0.198-0.959,0.463-1.39,0.827l-0.298-0.396l-0.33-0.397c0.529-0.396,1.092-0.728,1.653-0.959      l0.166,0.463L314.601,214.815z"/>
				<path d="M313.212,215.642c-0.926,0.694-1.786,1.753-2.547,2.978l-0.431-0.265l-0.43-0.265c0.827-1.323,1.786-2.448,2.779-3.242      l0.33,0.397L313.212,215.642z"/>
				<path d="M310.665,218.619c-0.761,1.257-1.39,2.713-1.819,4.301l-0.496-0.133l-0.464-0.132c0.464-1.688,1.125-3.209,1.919-4.565      l0.43,0.265L310.665,218.619z"/>
				<path d="M308.845,222.92c-0.431,1.555-0.695,3.241-0.695,4.929h-0.496h-0.496c0-1.786,0.265-3.54,0.728-5.193l0.464,0.132      L308.845,222.92z"/>
				<path d="M308.15,227.849v55.146h-0.496h-0.496v-55.146h0.496H308.15z"/>
				<path d="M308.15,282.995c0,1.753-0.265,3.539-0.728,5.193l-0.463-0.133l-0.496-0.132c0.43-1.588,0.694-3.242,0.694-4.929h0.496      H308.15z"/>
				<path d="M307.423,288.189c-0.463,1.654-1.125,3.209-1.919,4.532l-0.43-0.231l-0.43-0.265c0.761-1.258,1.389-2.746,1.819-4.301      l0.496,0.132L307.423,288.189z"/>
				<path d="M305.504,292.721c-0.826,1.356-1.753,2.48-2.778,3.274l-0.298-0.396l-0.298-0.397c0.927-0.728,1.786-1.753,2.515-2.977      l0.43,0.265L305.504,292.721z"/>
				<path d="M302.725,295.995c-0.529,0.397-1.059,0.729-1.621,0.96l-0.165-0.463l-0.199-0.464c0.464-0.198,0.927-0.463,1.39-0.827      l0.298,0.397L302.725,295.995z"/>
				<path d="M301.104,296.955c-0.563,0.198-1.158,0.331-1.72,0.331v-0.497v-0.496c0.463,0,0.926-0.099,1.355-0.265l0.199,0.464      L301.104,296.955z"/>
			</g>
		</g>
	</g>
	<g>
		<desc>Drawing</desc>
		<g>
			<g>
				<rect x="370.509" y="189.243" fill="none" width="238.217" height="57.925"/>
			</g>
			<g>
						<text transform="matrix(1, 0, 0, 1, 378.778, 212.432)" font-family="'ArialMT'" font-size="21.0065">Sufficiently high</text>
						<text transform="matrix(1, 0, 0, 1, 378.778, 235.953)" font-family="'ArialMT'" font-size="21.0065">derivation tree</text>
			</g>
		</g>
	</g>
	<g>
		<desc>Drawing</desc>
		<g>
			<g>
				<path d="M167.555,131.351v1.688h-0.496h-0.496v-1.688h0.496H167.555z"/>
				<path d="M167.555,134.726v1.687h-0.496h-0.496v-1.687h0.496H167.555z"/>
				<path d="M167.555,138.1v1.688h-0.496h-0.496V138.1h0.496H167.555z"/>
				<path d="M167.555,141.474v1.688h-0.496h-0.496v-1.688h0.496H167.555z"/>
				<path d="M167.555,144.848v1.688h-0.496h-0.496v-1.688h0.496H167.555z"/>
				<path d="M167.192,148.488l-1.225,1.19l-0.33-0.363l-0.364-0.331l1.19-1.224l0.364,0.363L167.192,148.488z"/>
				<path d="M164.777,150.869l-1.191,1.19l-0.33-0.363l-0.364-0.331l1.19-1.191l0.364,0.331L164.777,150.869z"/>
				<path d="M162.395,153.251l-1.191,1.19l-0.33-0.363l-0.364-0.331l1.19-1.191l0.364,0.331L162.395,153.251z"/>
				<path d="M160.013,155.633l-0.86,0.893l-0.364-0.363l-0.363-0.364l0.893-0.86l0.364,0.331L160.013,155.633z"/>
				<path d="M158.426,156.526c-0.066-0.099-0.133-0.231-0.133-0.363c0-0.133,0.066-0.265,0.133-0.364l0.363,0.364L158.426,156.526z"/>
				<path d="M159.153,155.798l0.298,0.331l-0.331,0.364l-0.363,0.33l-0.331-0.298l0.363-0.363L159.153,155.798z"/>
				<path d="M160.641,157.32l1.191,1.191l-0.331,0.364l-0.363,0.33l-1.191-1.19l0.364-0.331L160.641,157.32z"/>
				<path d="M163.023,159.701l1.191,1.191l-0.331,0.364l-0.363,0.33l-1.191-1.19l0.364-0.331L163.023,159.701z"/>
				<path d="M165.405,162.083l1.191,1.191l-0.331,0.364l-0.363,0.33l-1.191-1.19l0.364-0.331L165.405,162.083z"/>
				<path d="M167.82,164.465l1.191,1.191l-0.364,0.364l-0.363,0.363l-1.191-1.19l0.364-0.364L167.82,164.465z"/>
				<path d="M170.202,166.847l1.191,1.225l-0.364,0.331l-0.331,0.363l-1.224-1.19l0.364-0.364L170.202,166.847z"/>
				<path d="M172.584,169.262l1.191,1.191l-0.364,0.331l-0.331,0.363l-1.19-1.19l0.331-0.364L172.584,169.262z"/>
				<path d="M174.966,171.644l0.729,0.695l-0.364,0.363l-0.364,0.364l-0.694-0.728l0.331-0.364L174.966,171.644z"/>
				<path d="M175.694,172.339c0.065,0.099,0.132,0.231,0.132,0.363c0,0.199-0.1,0.364-0.265,0.431l-0.231-0.431L175.694,172.339z"/>
				<path d="M175.561,173.133l-0.596,0.33L174.734,173l-0.231-0.43l0.596-0.298l0.231,0.43L175.561,173.133z"/>
				<path d="M173.444,174.192l-1.521,0.761l-0.198-0.431l-0.232-0.463l1.489-0.761l0.231,0.463L173.444,174.192z"/>
				<path d="M170.433,175.713l-1.521,0.761l-0.231-0.463l-0.198-0.431l1.488-0.761l0.231,0.464L170.433,175.713z"/>
				<path d="M167.39,177.235l-1.488,0.728l-0.232-0.43l-0.231-0.43l1.522-0.761l0.231,0.43L167.39,177.235z"/>
				<path d="M164.38,178.724l-1.488,0.761l-0.231-0.431l-0.231-0.463l1.521-0.761l0.198,0.463L164.38,178.724z"/>
				<path d="M161.37,180.245l-1.522,0.761l-0.198-0.463l-0.231-0.431l1.521-0.761l0.199,0.431L161.37,180.245z"/>
				<path d="M158.359,181.734l-1.521,0.761l-0.231-0.43l-0.199-0.463l1.489-0.729l0.231,0.431L158.359,181.734z"/>
				<path d="M155.348,183.255l-1.521,0.762l-0.231-0.464l-0.231-0.43l1.521-0.761l0.231,0.463L155.348,183.255z"/>
				<path d="M152.305,184.778l-1.488,0.728l-0.232-0.43l-0.231-0.431l1.522-0.761l0.231,0.43L152.305,184.778z"/>
				<path d="M149.295,186.266l-1.521,0.761l-0.198-0.43l-0.231-0.463l1.521-0.762l0.198,0.464L149.295,186.266z"/>
				<path d="M146.285,187.787l-1.522,0.761l-0.231-0.463l-0.198-0.43l1.488-0.761l0.232,0.43L146.285,187.787z"/>
				<path d="M143.274,189.277l-0.794,0.396l-0.231-0.43l-0.231-0.431l0.794-0.396l0.231,0.43L143.274,189.277z"/>
				<path d="M141.851,189.541c-0.065-0.1-0.099-0.199-0.099-0.298c0-0.198,0.099-0.364,0.265-0.431l0.231,0.431L141.851,189.541z"/>
				<path d="M142.645,188.946l0.496,0.629l-0.396,0.297l-0.397,0.298l-0.496-0.628l0.397-0.298L142.645,188.946z"/>
				<path d="M144.135,190.93l1.025,1.356l-0.397,0.298l-0.396,0.298l-1.025-1.356l0.396-0.298L144.135,190.93z"/>
				<path d="M146.152,193.643l1.025,1.356l-0.396,0.298l-0.397,0.298l-1.025-1.356l0.397-0.298L146.152,193.643z"/>
				<path d="M148.203,196.323l0.993,1.356l-0.397,0.298l-0.396,0.298l-0.993-1.356l0.397-0.298L148.203,196.323z"/>
				<path d="M150.221,199.035l0.694,0.926l-0.396,0.298l-0.397,0.298l-0.694-0.926l0.396-0.298L150.221,199.035z"/>
			</g>
		</g>
	</g>
	<g>
		<desc>Drawing</desc>
		<g>
			<g>
				<path d="M151.015,200.392l-0.431,1.621l-0.496-0.133l-0.463-0.132l0.43-1.621l0.497,0.132L151.015,200.392z"/>
				<path d="M150.122,203.666l-0.43,1.621l-0.496-0.132l-0.464-0.133l0.431-1.621l0.496,0.133L150.122,203.666z"/>
				<path d="M149.229,206.908l-0.431,1.621l-0.496-0.133l-0.463-0.132l0.43-1.621l0.496,0.133L149.229,206.908z"/>
				<path d="M148.336,210.151l-0.43,1.621l-0.464-0.1l-0.496-0.132l0.463-1.654l0.464,0.132L148.336,210.151z"/>
				<path d="M147.475,213.425l-0.463,1.621l-0.463-0.132l-0.496-0.133l0.463-1.621l0.463,0.133L147.475,213.425z"/>
				<path d="M146.583,216.667l-0.464,1.621l-0.463-0.132l-0.496-0.133l0.463-1.621l0.463,0.133L146.583,216.667z"/>
				<path d="M145.689,219.909l-0.463,1.654l-0.464-0.133l-0.496-0.132l0.463-1.621l0.464,0.099L145.689,219.909z"/>
				<path d="M144.796,223.185l-0.463,1.62l-0.463-0.132l-0.496-0.133l0.463-1.62l0.463,0.132L144.796,223.185z"/>
				<path d="M143.903,226.426l-0.464,1.621l-0.463-0.132l-0.496-0.133l0.463-1.621l0.463,0.133L143.903,226.426z"/>
				<path d="M143.01,229.701l-0.298,1.025l-0.463-0.132l-0.496-0.133l0.298-1.025l0.463,0.132L143.01,229.701z"/>
				<path d="M141.984,230.991c-0.133-0.066-0.231-0.231-0.231-0.396c0-0.066,0-0.1,0-0.133l0.496,0.133L141.984,230.991z"/>
				<path d="M142.513,230.164l0.529,0.364l-0.265,0.396l-0.298,0.431l-0.496-0.364l0.265-0.396L142.513,230.164z"/>
				<path d="M144.432,231.454l1.422,0.927l-0.298,0.43l-0.265,0.397l-1.389-0.927l0.265-0.43L144.432,231.454z"/>
				<path d="M147.244,233.34l1.423,0.927l-0.298,0.396l-0.265,0.431l-1.39-0.96l0.265-0.396L147.244,233.34z"/>
				<path d="M150.055,235.193l1.423,0.927l-0.298,0.43l-0.265,0.397l-1.422-0.927l0.297-0.396L150.055,235.193z"/>
				<path d="M152.868,237.078l1.39,0.927l-0.265,0.396l-0.265,0.43l-1.423-0.926l0.298-0.43L152.868,237.078z"/>
				<path d="M155.679,238.931l1.39,0.927l-0.265,0.43l-0.265,0.396l-1.423-0.926l0.298-0.397L155.679,238.931z"/>
				<path d="M158.492,240.817l1.389,0.926l-0.265,0.431l-0.265,0.396l-1.422-0.926l0.265-0.431L158.492,240.817z"/>
				<path d="M161.303,242.669l1.39,0.959l-0.265,0.397l-0.298,0.43l-1.39-0.959l0.265-0.397L161.303,242.669z"/>
				<path d="M164.082,244.555l1.423,0.926l-0.265,0.431l-0.298,0.396l-1.39-0.926l0.265-0.431L164.082,244.555z"/>
				<path d="M166.894,246.407l0.43,0.298l-0.265,0.43l-0.265,0.397l-0.43-0.298l0.265-0.397L166.894,246.407z"/>
				<path d="M167.324,246.705c0.133,0.099,0.231,0.231,0.231,0.43c0,0.033,0,0.066,0,0.133l-0.496-0.133L167.324,246.705z"/>
				<path d="M167.555,247.268l-0.33,1.124l-0.464-0.132l-0.496-0.133l0.331-1.124l0.463,0.132L167.555,247.268z"/>
				<path d="M166.795,250.013l-0.463,1.621l-0.463-0.132l-0.464-0.133l0.431-1.621l0.463,0.133L166.795,250.013z"/>
				<path d="M165.902,253.255l-0.431,1.621l-0.496-0.1l-0.463-0.132l0.43-1.654l0.496,0.132L165.902,253.255z"/>
				<path d="M165.009,256.531l-0.43,1.62l-0.497-0.132l-0.463-0.133l0.431-1.62l0.496,0.132L165.009,256.531z"/>
				<path d="M164.115,259.772l-0.43,1.621l-0.463-0.132l-0.496-0.133l0.43-1.621l0.496,0.133L164.115,259.772z"/>
			</g>
		</g>
	</g>
	<g>
		<desc>Drawing</desc>
		<g>
			<g>
				<rect x="150.519" y="180.973" fill="none" width="33.114" height="42.377"/>
			</g>
			<g>
						<text transform="matrix(1, 0, 0, 1, 159.286, 204.658)" font-family="'ArialMT'" font-size="21.0065">N</text>
			</g>
		</g>
	</g>
	<g>
		<desc>Drawing</desc>
		<g>
			<g>
				<rect x="158.789" y="246.143" fill="none" width="41.385" height="42.377"/>
			</g>
			<g>
						<text transform="matrix(1, 0, 0, 1, 167.556, 269.828)" font-family="'ArialMT'" font-size="21.0065">N</text>
			</g>
		</g>
	</g>
	<g>
		<desc>Drawing</desc>
		<g>
			<g>
				<path d="M150.453,197.944c1.158,0,2.051,0.86,2.051,2.018c0,1.158-0.893,2.052-2.051,2.052s-2.018-0.894-2.018-2.052      C148.435,198.804,149.295,197.944,150.453,197.944z M148.435,197.944L148.435,197.944z M152.57,202.078L152.57,202.078z"/>
			</g>
			<g>
				<rect x="147.971" y="197.481" fill="none" width="5.095" height="5.094"/>
			</g>
		</g>
	</g>
	<g>
		<desc>Drawing</desc>
		<g>
			<g>
				<path d="M163.056,260.797c1.158,0,2.052,0.86,2.052,2.019c0,1.157-0.894,2.051-2.052,2.051c-1.157,0-2.018-0.894-2.018-2.051      C161.039,261.657,161.899,260.797,163.056,260.797z M161.039,260.797L161.039,260.797z M165.174,264.933L165.174,264.933z"/>
			</g>
			<g>
				<rect x="160.576" y="260.334" fill="none" width="5.094" height="5.095"/>
			</g>
		</g>
	</g>

	<g>  
		<desc>Drawing</desc>
		<g>  
			<g>  
				<rect x="16.541" y="291.794" fill="none" width="99.276" height="57.926"/>
			</g> 
			<g>  
				<g>  
					<g>  
						<text transform="matrix(1, 0, 0, 1, 24.8113, 314.984)" font-family="'ArialMT'" font-size="21.0065">s</text>
						<text transform="matrix(1, 0, 0, 1, 39.532, 314.984)" font-family="'ArialMT'" font-size="21.0065"> </text>
						<text transform="matrix(1, 0, 0, 1, 45.3875, 314.984)" font-family="'ArialMT'" font-size="21.0065">=</text>
					</g> 
				</g> 
			</g> 
		</g> 
	</g> 

	<g>
		<desc>Drawing</desc>
		<g>
			<g>
				<path d="M166.663,362.688c0.065-0.166,0.231-0.265,0.43-0.265c0.165,0,0.331,0.099,0.43,0.265l-0.43,0.231L166.663,362.688z"/>
				<path d="M167.522,363.184L68.246,528.589l-0.43-0.265l-0.43-0.265l99.276-165.372l0.43,0.231L167.522,363.184z"/>
				<path d="M67.816,528.821L67.816,528.821c-0.265,0-0.496-0.231-0.496-0.496c0-0.1,0.033-0.166,0.066-0.265l0.43,0.265V528.821z"/>
				<path d="M67.816,527.827h24.811v0.497v0.496H67.816v-0.496V527.827z"/>
				<path d="M93.057,528.589c-0.1,0.132-0.231,0.231-0.431,0.231v-0.496L93.057,528.589z"/>
				<path d="M92.197,528.06l37.249-61.994l0.397,0.265l0.43,0.265l-37.216,61.994l-0.431-0.265L92.197,528.06z"/>
				<path d="M129.446,466.066c0.066-0.133,0.231-0.231,0.397-0.231c0.298,0,0.496,0.231,0.496,0.496l0,0h-0.496L129.446,466.066z"/>
				<path d="M130.34,466.33v61.994h-0.496h-0.496V466.33h0.496H130.34z"/>
				<path d="M129.844,528.821c-0.265,0-0.496-0.231-0.496-0.496l0,0h0.496V528.821z"/>
				<path d="M129.844,527.827h41.384v0.497v0.496h-41.384v-0.496V527.827z"/>
				<path d="M171.724,528.324L171.724,528.324c0,0.265-0.232,0.496-0.497,0.496l0,0v-0.496H171.724z"/>
				<path d="M170.731,528.324l-0.033-62.027h0.497h0.496l0.033,62.027h-0.497H170.731z"/>
				<path d="M170.698,466.297L170.698,466.297c0-0.298,0.232-0.496,0.497-0.496c0.198,0,0.33,0.099,0.43,0.231l-0.43,0.265H170.698z      "/>
				<path d="M171.625,466.032l37.216,62.06l-0.43,0.265l-0.43,0.232l-37.217-62.061l0.431-0.231L171.625,466.032z"/>
				<path d="M208.411,528.854L208.411,528.854c-0.165,0-0.331-0.1-0.43-0.265l0.43-0.232V528.854z"/>
				<path d="M208.411,527.861l57.892-0.033v0.497v0.496l-57.892,0.033v-0.497V527.861z"/>
				<path d="M266.733,528.06c0.032,0.065,0.065,0.165,0.065,0.265c0,0.265-0.231,0.496-0.496,0.496v-0.496L266.733,528.06z"/>
				<path d="M265.873,528.556l-99.21-165.372l0.43-0.265l0.43-0.231l99.211,165.372l-0.431,0.265L265.873,528.556z"/>
			</g>
		</g>
	</g>
	<g>
		<desc>Drawing</desc>
		<g>
			<g>
				<path fill="#99CCFF" d="M80.221,544.865H67.816v-16.54h24.811v16.54H80.221z"/>
			</g>
			<g>
				<path d="M80.221,545.361H67.816v-0.496v-0.496h12.405v0.496V545.361z"/>
				<path d="M67.816,545.361c-0.265,0-0.496-0.231-0.496-0.496h0.496V545.361z"/>
				<path d="M67.32,544.865v-16.54h0.496h0.496v16.54h-0.496H67.32z"/>
				<path d="M67.32,528.324c0-0.265,0.231-0.497,0.496-0.497v0.497H67.32z"/>
				<path d="M67.816,527.827h24.811v0.497v0.496H67.816v-0.496V527.827z"/>
				<path d="M92.627,527.827c0.265,0,0.496,0.232,0.496,0.497h-0.496V527.827z"/>
				<path d="M93.123,528.324v16.54h-0.496h-0.496v-16.54h0.496H93.123z"/>
				<path d="M93.123,544.865c0,0.265-0.231,0.496-0.496,0.496v-0.496H93.123z"/>
				<path d="M92.627,545.361H80.221v-0.496v-0.496h12.405v0.496V545.361z"/>
			</g>
			<g>
				<g>
					<g>
						<text transform="matrix(1, 0, 0, 1, 74.3997, 543.904)" font-family="'ArialMT'" font-size="21.0065">u</text>
					</g>
				</g>
			</g>
		</g>
	</g>
	<g>
		<desc>Drawing</desc>
		<g>
			<g>
				<path fill="#CCFFFF" d="M150.519,544.865h-20.676v-16.54h41.352v16.54H150.519z"/>
			</g>
			<g>
				<path d="M150.519,545.361h-20.676v-0.496v-0.496h20.676v0.496V545.361z"/>
				<path d="M129.844,545.361c-0.265,0-0.496-0.231-0.496-0.496h0.496V545.361z"/>
				<path d="M129.347,544.865v-16.54h0.496h0.496v16.54h-0.496H129.347z"/>
				<path d="M129.347,528.324c0-0.265,0.231-0.497,0.496-0.497v0.497H129.347z"/>
				<path d="M129.844,527.827h41.352v0.497v0.496h-41.352v-0.496V527.827z"/>
				<path d="M171.195,527.827c0.265,0,0.496,0.232,0.496,0.497h-0.496V527.827z"/>
				<path d="M171.691,528.324v16.54h-0.496h-0.497v-16.54h0.497H171.691z"/>
				<path d="M171.691,544.865c0,0.265-0.231,0.496-0.496,0.496v-0.496H171.691z"/>
				<path d="M171.195,545.361h-20.676v-0.496v-0.496h20.676v0.496V545.361z"/>
			</g>
			<g>
				<g>
					<g>
						<text transform="matrix(1, 0, 0, 1, 143.175, 543.904)" font-family="'ArialMT'" font-size="21.0065">w</text>
					</g>
				</g>
			</g>
		</g>
	</g>
	<g>
		<desc>Drawing</desc>
		<g>
			<g>
				<path fill="#99CCFF" d="M237.357,544.865h-28.946v-16.54h57.892v16.54H237.357z"/>
			</g>
			<g>
				<path d="M237.357,545.361h-28.946v-0.496v-0.496h28.946v0.496V545.361z"/>
				<path d="M208.411,545.361c-0.265,0-0.496-0.231-0.496-0.496h0.496V545.361z"/>
				<path d="M207.915,544.865v-16.54h0.496h0.496v16.54h-0.496H207.915z"/>
				<path d="M207.915,528.324c0-0.265,0.231-0.497,0.496-0.497v0.497H207.915z"/>
				<path d="M208.411,527.827h57.892v0.497v0.496h-57.892v-0.496V527.827z"/>
				<path d="M266.302,527.827c0.265,0,0.496,0.232,0.496,0.497h-0.496V527.827z"/>
				<path d="M266.799,528.324v16.54h-0.496h-0.496v-16.54h0.496H266.799z"/>
				<path d="M266.799,544.865c0,0.265-0.231,0.496-0.496,0.496v-0.496H266.799z"/>
				<path d="M266.302,545.361h-28.945v-0.496v-0.496h28.945v0.496V545.361z"/>
			</g>
			<g>
				<g>
					<g>
						<text transform="matrix(1, 0, 0, 1, 232.262, 543.904)" font-family="'ArialMT'" font-size="21.0065">y</text>
					</g>
				</g>
			</g>
		</g>
	</g>
	<g>
		<desc>Drawing</desc>
		<g>
			<g>
				<path fill="#CCFFFF" d="M150.519,431.826l20.676,34.471h-41.352L150.519,431.826z"/>
			</g>
			<g>
				<path d="M150.089,431.562c0.1-0.132,0.231-0.231,0.431-0.231c0.165,0,0.33,0.1,0.43,0.231l-0.43,0.265L150.089,431.562z"/>
				<path d="M150.949,432.091l-20.676,34.471l-0.43-0.265l-0.431-0.265l20.676-34.471l0.431,0.265L150.949,432.091z"/>
				<path d="M129.844,466.793L129.844,466.793c-0.298,0-0.496-0.231-0.496-0.496c0-0.1,0-0.165,0.065-0.265l0.431,0.265V466.793z"/>
				<path d="M129.844,465.801h41.352v0.496v0.496h-41.352v-0.496V465.801z"/>
				<path d="M171.625,466.032c0.033,0.066,0.066,0.165,0.066,0.265c0,0.265-0.231,0.496-0.496,0.496v-0.496L171.625,466.032z"/>
				<path d="M170.764,466.529l-20.676-34.438l0.431-0.265l0.43-0.265l20.676,34.471l-0.43,0.265L170.764,466.529z"/>
			</g>
		</g>
	</g>
	<g>
		<desc>Drawing</desc>
		<g>
			<g>
				<path d="M167.555,362.919v1.687h-0.496h-0.496v-1.687h0.496H167.555z"/>
				<path d="M167.555,366.293v1.688h-0.496h-0.496v-1.688h0.496H167.555z"/>
				<path d="M167.555,369.667v1.688h-0.496h-0.496v-1.688h0.496H167.555z"/>
				<path d="M167.555,373.041v1.688h-0.496h-0.496v-1.688h0.496H167.555z"/>
				<path d="M167.555,376.416v1.687h-0.496h-0.496v-1.687h0.496H167.555z"/>
				<path d="M167.192,380.055l-1.225,1.19l-0.33-0.363l-0.364-0.331l1.19-1.224l0.364,0.363L167.192,380.055z"/>
				<path d="M164.777,382.437l-1.191,1.19l-0.33-0.363l-0.364-0.331l1.19-1.19l0.364,0.33L164.777,382.437z"/>
				<path d="M162.395,384.819l-1.191,1.19l-0.33-0.363l-0.364-0.331l1.19-1.19l0.364,0.33L162.395,384.819z"/>
				<path d="M160.013,387.2l-0.86,0.894l-0.364-0.364l-0.363-0.364l0.893-0.859l0.364,0.33L160.013,387.2z"/>
				<path d="M158.426,388.094c-0.066-0.1-0.133-0.232-0.133-0.364c0-0.133,0.066-0.265,0.133-0.364l0.363,0.364L158.426,388.094z"/>
				<path d="M159.153,387.365l0.298,0.331l-0.331,0.364l-0.363,0.33l-0.331-0.297l0.363-0.364L159.153,387.365z"/>
				<path d="M160.641,388.888l1.191,1.19l-0.331,0.364l-0.363,0.33l-1.191-1.19l0.364-0.331L160.641,388.888z"/>
				<path d="M163.023,391.27l1.191,1.19l-0.331,0.364l-0.363,0.33l-1.191-1.19l0.364-0.331L163.023,391.27z"/>
				<path d="M165.405,393.652l1.191,1.19l-0.331,0.364l-0.363,0.33l-1.191-1.19l0.364-0.331L165.405,393.652z"/>
				<path d="M167.82,396.033l1.191,1.19l-0.364,0.364l-0.363,0.363l-1.191-1.19l0.364-0.364L167.82,396.033z"/>
				<path d="M170.202,398.415l1.191,1.224l-0.364,0.331l-0.331,0.363l-1.224-1.19l0.364-0.364L170.202,398.415z"/>
				<path d="M172.584,400.829l1.191,1.191l-0.364,0.331l-0.331,0.363l-1.19-1.19l0.331-0.364L172.584,400.829z"/>
				<path d="M174.966,403.211l0.729,0.695l-0.364,0.363l-0.364,0.364l-0.694-0.728l0.331-0.364L174.966,403.211z"/>
				<path d="M175.694,403.906c0.065,0.099,0.132,0.231,0.132,0.363c0,0.199-0.1,0.364-0.265,0.431l-0.231-0.431L175.694,403.906z"/>
				<path d="M175.561,404.7l-0.596,0.331l-0.231-0.464l-0.231-0.43l0.596-0.298l0.231,0.43L175.561,404.7z"/>
				<path d="M173.444,405.759l-1.521,0.761l-0.198-0.43l-0.232-0.464l1.489-0.761l0.231,0.463L173.444,405.759z"/>
				<path d="M170.433,407.281l-1.521,0.761l-0.231-0.463l-0.198-0.43l1.488-0.762l0.231,0.464L170.433,407.281z"/>
				<path d="M167.39,408.802l-1.488,0.729l-0.232-0.431l-0.231-0.43l1.522-0.761l0.231,0.43L167.39,408.802z"/>
				<path d="M164.38,410.291l-1.488,0.761l-0.231-0.431l-0.231-0.463l1.521-0.761l0.198,0.463L164.38,410.291z"/>
				<path d="M161.37,411.813l-1.522,0.761l-0.198-0.463l-0.231-0.431l1.521-0.761l0.199,0.431L161.37,411.813z"/>
				<path d="M158.359,413.301l-1.521,0.761l-0.231-0.43l-0.199-0.463l1.489-0.728l0.231,0.43L158.359,413.301z"/>
				<path d="M155.348,414.823l-1.521,0.761l-0.231-0.464l-0.231-0.43l1.521-0.761l0.231,0.463L155.348,414.823z"/>
				<path d="M152.305,416.345l-1.488,0.728l-0.232-0.43l-0.231-0.431l1.522-0.761l0.231,0.431L152.305,416.345z"/>
				<path d="M149.295,417.833l-1.521,0.761l-0.198-0.43l-0.231-0.463l1.521-0.761l0.198,0.463L149.295,417.833z"/>
				<path d="M146.285,419.355l-1.522,0.762l-0.231-0.464l-0.198-0.43l1.488-0.761l0.232,0.43L146.285,419.355z"/>
				<path d="M143.274,420.844l-0.794,0.396l-0.231-0.43l-0.231-0.43l0.794-0.397l0.231,0.43L143.274,420.844z"/>
				<path d="M141.851,421.109c-0.065-0.1-0.099-0.198-0.099-0.298c0-0.198,0.099-0.364,0.265-0.43l0.231,0.43L141.851,421.109z"/>
				<path d="M142.645,420.513l0.496,0.628l-0.396,0.298l-0.397,0.298l-0.496-0.628l0.397-0.298L142.645,420.513z"/>
				<path d="M144.135,422.497l1.025,1.356l-0.397,0.298l-0.396,0.298l-1.025-1.356l0.396-0.298L144.135,422.497z"/>
				<path d="M146.152,425.21l1.025,1.356l-0.396,0.298l-0.397,0.298l-1.025-1.356l0.397-0.298L146.152,425.21z"/>
				<path d="M148.203,427.89l0.993,1.356l-0.397,0.298l-0.396,0.298l-0.993-1.356l0.397-0.298L148.203,427.89z"/>
				<path d="M150.221,430.603l0.694,0.926l-0.396,0.298l-0.397,0.298l-0.694-0.927l0.396-0.297L150.221,430.603z"/>
			</g>
		</g>
	</g>
	<g>
		<desc>Drawing</desc>
		<g>
			<g>
				<rect x="150.519" y="412.54" fill="none" width="33.114" height="42.377"/>
			</g>
			<g>
						<text transform="matrix(1, 0, 0, 1, 159.286, 436.227)" font-family="'ArialMT'" font-size="21.0065">N</text>
			</g>
		</g>
	</g>
	<g>
		<desc>Drawing</desc>
		<g>
			<g>
				<path d="M150.453,429.511c1.158,0,2.051,0.86,2.051,2.018c0,1.158-0.893,2.052-2.051,2.052s-2.018-0.894-2.018-2.052      C148.435,430.371,149.295,429.511,150.453,429.511z M148.435,429.511L148.435,429.511z M152.57,433.646L152.57,433.646z"/>
			</g>
			<g>
				<rect x="147.971" y="429.048" fill="none" width="5.095" height="5.094"/>
			</g>
		</g>
	</g>
	<g>
		<desc>Drawing</desc>
		<g>
			<g>
				<path d="M406.468,362.655c0.1-0.133,0.231-0.231,0.43-0.231c0.166,0,0.331,0.099,0.431,0.231l-0.431,0.265L406.468,362.655z"/>
				<path d="M407.328,363.184l-99.276,165.372l-0.431-0.231l-0.43-0.265l99.276-165.405l0.43,0.265L407.328,363.184z"/>
				<path d="M307.621,528.821c-0.265,0-0.496-0.231-0.496-0.496c0-0.1,0.033-0.199,0.066-0.265l0.43,0.265V528.821z"/>
				<path d="M307.621,527.827h198.52v0.497v0.496h-198.52v-0.496V527.827z"/>
				<path d="M506.571,528.06c0.033,0.065,0.066,0.165,0.066,0.265c0,0.265-0.232,0.496-0.497,0.496l0,0v-0.496L506.571,528.06z"/>
				<path d="M505.711,528.556l-99.243-165.372l0.43-0.265l0.431-0.265l99.243,165.405l-0.431,0.265L505.711,528.556z"/>
			</g>
		</g>
	</g>
	<g>
		<desc>Drawing</desc>
		<g>
			<g>
				<path fill="#99CCFF" d="M320.059,544.865h-12.405v-16.54h24.812v16.54H320.059z"/>
			</g>
			<g>
				<path d="M320.059,545.361h-12.405v-0.496v-0.496h12.405v0.496V545.361z"/>
				<path d="M307.654,545.361c-0.265,0-0.496-0.231-0.496-0.496h0.496V545.361z"/>
				<path d="M307.158,544.865v-16.54h0.496h0.496v16.54h-0.496H307.158z"/>
				<path d="M307.158,528.324c0-0.265,0.231-0.497,0.496-0.497v0.497H307.158z"/>
				<path d="M307.654,527.827h24.812v0.497v0.496h-24.812v-0.496V527.827z"/>
				<path d="M332.466,527.827c0.265,0,0.496,0.232,0.496,0.497h-0.496V527.827z"/>
				<path d="M332.962,528.324v16.54h-0.496h-0.497v-16.54h0.497H332.962z"/>
				<path d="M332.962,544.865c0,0.265-0.231,0.496-0.496,0.496v-0.496H332.962z"/>
				<path d="M332.466,545.361h-12.406v-0.496v-0.496h12.406v0.496V545.361z"/>
			</g>
			<g>
				<g>
					<g>
						<text transform="matrix(1, 0, 0, 1, 314.237, 543.904)" font-family="'ArialMT'" font-size="21.0065">u</text>
					</g>
				</g>
			</g>
		</g>
	</g>
	<g>
		<desc>Drawing</desc>
		<g>
			<g>
				<path fill="#FFFFCC" d="M357.276,544.865h-24.811v-16.54h49.621v16.54H357.276z"/>
			</g>
			<g>
				<path d="M357.276,545.361h-24.811v-0.496v-0.496h24.811v0.496V545.361z"/>
				<path d="M332.466,545.361c-0.265,0-0.497-0.231-0.497-0.496h0.497V545.361z"/>
				<path d="M331.969,544.865v-16.54h0.497h0.496v16.54h-0.496H331.969z"/>
				<path d="M331.969,528.324c0-0.265,0.232-0.497,0.497-0.497v0.497H331.969z"/>
				<path d="M332.466,527.827h49.621v0.497v0.496h-49.621v-0.496V527.827z"/>
				<path d="M382.087,527.827c0.265,0,0.496,0.232,0.496,0.497h-0.496V527.827z"/>
				<path d="M382.583,528.324v16.54h-0.496h-0.496v-16.54h0.496H382.583z"/>
				<path d="M382.583,544.865c0,0.265-0.231,0.496-0.496,0.496v-0.496H382.583z"/>
				<path d="M382.087,545.361h-24.811v-0.496v-0.496h24.811v0.496V545.361z"/>
			</g>
			<g>
				<g>
					<g>
						<text transform="matrix(1, 0, 0, 1, 352.015, 543.904)" font-family="'ArialMT'" font-size="21.0065">v</text>
					</g>
				</g>
			</g>
		</g>
	</g>
	<g>
		<desc>Drawing</desc>
		<g>
			<g>
				<path fill="#FFFFCC" d="M435.844,544.865h-12.405v-16.54h24.811v16.54H435.844z"/>
			</g>
			<g>
				<path d="M435.844,545.361h-12.405v-0.496v-0.496h12.405v0.496V545.361z"/>
				<path d="M423.438,545.361c-0.265,0-0.496-0.231-0.496-0.496h0.496V545.361z"/>
				<path d="M422.942,544.865v-16.54h0.496h0.496v16.54h-0.496H422.942z"/>
				<path d="M422.942,528.324c0-0.265,0.231-0.497,0.496-0.497v0.497H422.942z"/>
				<path d="M423.438,527.827h24.811v0.497v0.496h-24.811v-0.496V527.827z"/>
				<path d="M448.249,527.827c0.265,0,0.496,0.232,0.496,0.497h-0.496V527.827z"/>
				<path d="M448.745,528.324v16.54h-0.496h-0.496v-16.54h0.496H448.745z"/>
				<path d="M448.745,544.865c0,0.265-0.231,0.496-0.496,0.496v-0.496H448.745z"/>
				<path d="M448.249,545.361h-12.405v-0.496v-0.496h12.405v0.496V545.361z"/>
			</g>
			<g>
				<g>
					<g>
						<text transform="matrix(1, 0, 0, 1, 430.649, 543.904)" font-family="'ArialMT'" font-size="21.0065">x</text>
					</g>
				</g>
			</g>
		</g>
	</g>
	<g>
		<desc>Drawing</desc>
		<g>
			<g>
				<path fill="#99CCFF" d="M477.195,544.865h-28.946v-16.54h57.892v16.54H477.195z"/>
			</g>
			<g>
				<path d="M477.195,545.361h-28.946v-0.496v-0.496h28.946v0.496V545.361z"/>
				<path d="M448.249,545.361c-0.265,0-0.496-0.231-0.496-0.496h0.496V545.361z"/>
				<path d="M447.753,544.865v-16.54h0.496h0.496v16.54h-0.496H447.753z"/>
				<path d="M447.753,528.324c0-0.265,0.231-0.497,0.496-0.497v0.497H447.753z"/>
				<path d="M448.249,527.827h57.892v0.497v0.496h-57.892v-0.496V527.827z"/>
				<path d="M506.14,527.827c0.265,0,0.497,0.232,0.497,0.497h-0.497V527.827z"/>
				<path d="M506.637,528.324v16.54h-0.497h-0.496v-16.54h0.496H506.637z"/>
				<path d="M506.637,544.865c0,0.265-0.232,0.496-0.497,0.496v-0.496H506.637z"/>
				<path d="M506.14,545.361h-28.945v-0.496v-0.496h28.945v0.496V545.361z"/>
			</g>
			<g>
				<g>
					<g>
						<text transform="matrix(1, 0, 0, 1, 472.1, 543.904)" font-family="'ArialMT'" font-size="21.0065">y</text>
					</g>
				</g>
			</g>
		</g>
	</g>
	<g>
		<desc>Drawing</desc>
		<g>
			<g>
				<path fill="#FFFFCC" d="M390.357,431.826l57.892,96.465H332.466L390.357,431.826z"/>
			</g>
			<g>
				<path d="M389.927,431.595c0.1-0.165,0.265-0.265,0.431-0.265c0.198,0,0.363,0.1,0.43,0.265l-0.43,0.231L389.927,431.595z"/>
				<path d="M390.787,432.091l-57.892,96.465l-0.43-0.265l-0.431-0.231l57.892-96.465l0.431,0.231L390.787,432.091z"/>
				<path d="M332.466,528.787L332.466,528.787c-0.265,0-0.497-0.198-0.497-0.496c0-0.066,0.033-0.166,0.066-0.231l0.431,0.231      V528.787z"/>
				<path d="M332.466,527.795h115.783v0.496v0.496H332.466v-0.496V527.795z"/>
				<path d="M448.679,528.06c0.032,0.065,0.065,0.132,0.065,0.231c0,0.298-0.198,0.496-0.496,0.496v-0.496L448.679,528.06z"/>
				<path d="M447.819,528.556l-57.893-96.465l0.431-0.265l0.43-0.231l57.893,96.465l-0.431,0.231L447.819,528.556z"/>
			</g>
		</g>
	</g>
	<g>
		<desc>Drawing</desc>
		<g>
			<g>
				<path d="M407.393,362.919v1.687h-0.496h-0.496v-1.687h0.496H407.393z"/>
				<path d="M407.393,366.293v1.688h-0.496h-0.496v-1.688h0.496H407.393z"/>
				<path d="M407.393,369.667v1.688h-0.496h-0.496v-1.688h0.496H407.393z"/>
				<path d="M407.393,373.041v1.688h-0.496h-0.496v-1.688h0.496H407.393z"/>
				<path d="M407.393,376.416v1.687h-0.496h-0.496v-1.687h0.496H407.393z"/>
				<path d="M407.03,380.055l-1.225,1.19l-0.33-0.363l-0.364-0.331l1.191-1.224l0.363,0.363L407.03,380.055z"/>
				<path d="M404.615,382.437l-1.191,1.19l-0.33-0.363l-0.364-0.331l1.191-1.19l0.363,0.33L404.615,382.437z"/>
				<path d="M402.233,384.819l-1.191,1.19l-0.33-0.363l-0.364-0.331l1.191-1.19l0.363,0.33L402.233,384.819z"/>
				<path d="M399.851,387.2l-0.86,0.894l-0.363-0.364l-0.364-0.364l0.894-0.859l0.363,0.33L399.851,387.2z"/>
				<path d="M398.263,388.094c-0.066-0.1-0.133-0.232-0.133-0.364c0-0.133,0.066-0.265,0.133-0.364l0.364,0.364L398.263,388.094z"/>
				<path d="M398.991,387.365l0.298,0.331l-0.331,0.364l-0.363,0.33l-0.331-0.297l0.364-0.364L398.991,387.365z"/>
				<path d="M400.48,388.888l1.19,1.19l-0.331,0.364l-0.363,0.33l-1.191-1.19l0.364-0.331L400.48,388.888z"/>
				<path d="M402.862,391.27l1.19,1.19l-0.331,0.364l-0.363,0.33l-1.191-1.19l0.364-0.331L402.862,391.27z"/>
				<path d="M405.244,393.652l1.19,1.19l-0.331,0.364l-0.363,0.33l-1.191-1.19l0.364-0.331L405.244,393.652z"/>
				<path d="M407.658,396.033l1.191,1.19l-0.364,0.364l-0.363,0.363l-1.191-1.19l0.364-0.364L407.658,396.033z"/>
				<path d="M410.04,398.415l1.191,1.224l-0.364,0.331l-0.33,0.363l-1.225-1.19l0.364-0.364L410.04,398.415z"/>
				<path d="M412.422,400.829l1.191,1.191l-0.364,0.331l-0.33,0.363l-1.191-1.19l0.331-0.364L412.422,400.829z"/>
				<path d="M414.803,403.211l0.729,0.695l-0.364,0.363l-0.364,0.364l-0.694-0.728l0.331-0.364L414.803,403.211z"/>
				<path d="M415.532,403.906c0.065,0.099,0.132,0.231,0.132,0.363c0,0.199-0.099,0.364-0.265,0.431l-0.231-0.431L415.532,403.906z"/>
				<path d="M415.399,404.7l-0.596,0.331l-0.231-0.464l-0.231-0.43l0.596-0.298l0.231,0.43L415.399,404.7z"/>
				<path d="M413.282,405.759l-1.521,0.761l-0.198-0.43l-0.231-0.464l1.488-0.761l0.231,0.463L413.282,405.759z"/>
				<path d="M410.272,407.281l-1.522,0.761l-0.231-0.463l-0.198-0.43l1.488-0.762l0.231,0.464L410.272,407.281z"/>
				<path d="M407.228,408.802l-1.488,0.729l-0.231-0.431l-0.232-0.43l1.522-0.761l0.231,0.43L407.228,408.802z"/>
				<path d="M404.218,410.291l-1.488,0.761l-0.231-0.431l-0.231-0.463l1.521-0.761l0.198,0.463L404.218,410.291z"/>
				<path d="M401.208,411.813l-1.521,0.761l-0.199-0.463l-0.231-0.431l1.521-0.761l0.199,0.431L401.208,411.813z"/>
				<path d="M398.197,413.301l-1.521,0.761l-0.231-0.43l-0.198-0.463l1.488-0.728l0.231,0.43L398.197,413.301z"/>
				<path d="M395.187,414.823l-1.522,0.761l-0.231-0.464l-0.231-0.43l1.521-0.761l0.231,0.463L395.187,414.823z"/>
				<path d="M392.143,416.345l-1.488,0.728l-0.231-0.43l-0.232-0.431l1.522-0.761l0.231,0.431L392.143,416.345z"/>
				<path d="M389.133,417.833l-1.521,0.761l-0.198-0.43l-0.231-0.463l1.521-0.761l0.198,0.463L389.133,417.833z"/>
				<path d="M386.123,419.355l-1.521,0.762l-0.232-0.464l-0.198-0.43l1.489-0.761l0.231,0.43L386.123,419.355z"/>
				<path d="M383.112,420.844l-0.794,0.396l-0.231-0.43l-0.231-0.43l0.794-0.397l0.231,0.43L383.112,420.844z"/>
				<path d="M381.69,421.109c-0.066-0.1-0.1-0.198-0.1-0.298c0-0.198,0.1-0.364,0.265-0.43l0.231,0.43L381.69,421.109z"/>
				<path d="M382.484,420.513l0.496,0.628l-0.397,0.298l-0.396,0.298l-0.496-0.628l0.396-0.298L382.484,420.513z"/>
				<path d="M383.972,422.497l1.025,1.356l-0.396,0.298l-0.397,0.298l-1.025-1.356l0.396-0.298L383.972,422.497z"/>
				<path d="M385.99,425.21l1.025,1.356l-0.396,0.298l-0.397,0.298l-1.025-1.356l0.397-0.298L385.99,425.21z"/>
				<path d="M388.042,427.89l0.992,1.356l-0.397,0.298l-0.396,0.298l-0.992-1.356l0.396-0.298L388.042,427.89z"/>
				<path d="M390.059,430.603l0.694,0.926l-0.396,0.298l-0.397,0.298l-0.694-0.927l0.396-0.297L390.059,430.603z"/>
			</g>
		</g>
	</g>
	<g>
		<desc>Drawing</desc>
		<g>
			<g>
				<path d="M390.82,431.959l-0.43,1.621l-0.496-0.133l-0.464-0.133l0.431-1.62l0.496,0.132L390.82,431.959z"/>
				<path d="M389.927,435.2l-0.43,1.654l-0.463-0.132l-0.496-0.133l0.463-1.654l0.463,0.133L389.927,435.2z"/>
				<path d="M389.067,438.476l-0.464,1.621l-0.463-0.133l-0.496-0.132l0.463-1.621l0.464,0.133L389.067,438.476z"/>
				<path d="M388.174,441.718l-0.463,1.621l-0.463-0.133l-0.497-0.132l0.464-1.621l0.463,0.132L388.174,441.718z"/>
				<path d="M387.28,444.992l-0.43,1.621l-0.496-0.132l-0.463-0.133l0.43-1.621l0.496,0.133L387.28,444.992z"/>
				<path d="M386.387,448.235l-0.431,1.621l-0.496-0.132l-0.463-0.133l0.43-1.621l0.497,0.133L386.387,448.235z"/>
				<path d="M385.494,451.477l-0.43,1.654l-0.496-0.133l-0.464-0.132l0.431-1.654l0.496,0.132L385.494,451.477z"/>
				<path d="M384.634,454.752l-0.463,1.62l-0.463-0.132l-0.496-0.133l0.463-1.62l0.463,0.132L384.634,454.752z"/>
				<path d="M383.741,457.993l-0.463,1.621l-0.464-0.132l-0.496-0.133l0.463-1.621l0.464,0.133L383.741,457.993z"/>
				<path d="M382.847,461.269l-0.298,1.025l-0.463-0.132l-0.496-0.133l0.298-1.025l0.463,0.132L382.847,461.269z"/>
				<path d="M381.822,462.559c-0.132-0.066-0.231-0.231-0.231-0.396c0-0.066,0-0.1,0-0.133l0.496,0.133L381.822,462.559z"/>
				<path d="M382.351,461.732l0.529,0.364l-0.265,0.396l-0.298,0.431l-0.496-0.364l0.265-0.396L382.351,461.732z"/>
				<path d="M384.27,463.022l1.422,0.927l-0.297,0.43l-0.265,0.397l-1.39-0.927l0.265-0.43L384.27,463.022z"/>
				<path d="M387.082,464.907l1.423,0.927l-0.298,0.396l-0.265,0.431l-1.39-0.96l0.265-0.396L387.082,464.907z"/>
				<path d="M389.894,466.76l1.422,0.927l-0.298,0.43l-0.265,0.397l-1.422-0.927l0.298-0.396L389.894,466.76z"/>
				<path d="M392.706,468.646l1.39,0.927l-0.265,0.396l-0.265,0.43l-1.423-0.926l0.298-0.43L392.706,468.646z"/>
				<path d="M395.517,470.498l1.39,0.927l-0.265,0.43l-0.265,0.396l-1.423-0.926l0.298-0.397L395.517,470.498z"/>
				<path d="M398.33,472.384l1.389,0.926l-0.265,0.431l-0.265,0.396l-1.422-0.926l0.265-0.431L398.33,472.384z"/>
				<path d="M401.141,474.237l1.39,0.959l-0.265,0.397l-0.298,0.43l-1.39-0.959l0.265-0.397L401.141,474.237z"/>
				<path d="M403.921,476.122l1.422,0.926l-0.265,0.431l-0.298,0.396l-1.389-0.926l0.265-0.431L403.921,476.122z"/>
				<path d="M406.732,477.975l0.43,0.298l-0.265,0.43l-0.265,0.397l-0.43-0.298l0.265-0.397L406.732,477.975z"/>
				<path d="M407.162,478.273c0.133,0.099,0.231,0.231,0.231,0.43c0,0.033,0,0.066,0,0.133l-0.496-0.133L407.162,478.273z"/>
				<path d="M407.393,478.835l-0.33,1.124l-0.464-0.132l-0.496-0.133l0.331-1.124l0.463,0.132L407.393,478.835z"/>
				<path d="M406.633,481.58l-0.463,1.621l-0.463-0.132l-0.496-0.133l0.463-1.621l0.463,0.133L406.633,481.58z"/>
				<path d="M405.74,484.823l-0.464,1.621l-0.463-0.133l-0.496-0.132l0.463-1.621l0.464,0.132L405.74,484.823z"/>
				<path d="M404.846,488.098l-0.463,1.62l-0.463-0.132l-0.497-0.133l0.464-1.62l0.463,0.132L404.846,488.098z"/>
				<path d="M403.953,491.339l-0.463,1.621l-0.463-0.132l-0.496-0.133l0.463-1.621l0.463,0.133L403.953,491.339z"/>
			</g>
		</g>
	</g>
	<g>
		<desc>Drawing</desc>
		<g>
			<g>
				<rect x="390.357" y="412.54" fill="none" width="33.114" height="42.377"/>
			</g>
			<g>
						<text transform="matrix(1, 0, 0, 1, 399.123, 436.227)" font-family="'ArialMT'" font-size="21.0065">N</text>
			</g>
		</g>
	</g>
	<g>
		<desc>Drawing</desc>
		<g>
			<g>
				<rect x="398.628" y="477.71" fill="none" width="41.384" height="42.377"/>
			</g>
			<g>
						<text transform="matrix(1, 0, 0, 1, 407.393, 501.396)" font-family="'ArialMT'" font-size="21.0065">N</text>
			</g>
		</g>
	</g>
	<g>
		<desc>Drawing</desc>
		<g>
			<g>
				<path d="M390.291,429.511c1.158,0,2.051,0.86,2.051,2.018c0,1.158-0.893,2.052-2.051,2.052s-2.018-0.894-2.018-2.052      C388.273,430.371,389.133,429.511,390.291,429.511z M388.273,429.511L388.273,429.511z M392.408,433.646L392.408,433.646z"/>
			</g>
			<g>
				<rect x="387.809" y="429.048" fill="none" width="5.095" height="5.094"/>
			</g>
		</g>
	</g>
	<g>
		<desc>Drawing</desc>
		<g>
			<g>
				<path d="M402.894,492.365c1.158,0,2.052,0.86,2.052,2.019c0,1.157-0.894,2.051-2.052,2.051c-1.157,0-2.018-0.894-2.018-2.051      C400.877,493.225,401.737,492.365,402.894,492.365z M400.877,492.365L400.877,492.365z M405.011,496.5L405.011,496.5z"/>
			</g>
			<g>
				<rect x="400.414" y="491.902" fill="none" width="5.095" height="5.095"/>
			</g>
		</g>
	</g>
	<g>
		<desc>Drawing</desc>
		<g>
			<g>
				<path fill="#FFFFCC" d="M369.681,607.322h-24.811v-16.54h49.621v16.54H369.681z"/>
			</g>
			<g>
				<path d="M369.681,607.818h-24.811v-0.496v-0.496h24.811v0.496V607.818z"/>
				<path d="M344.871,607.818c-0.265,0-0.496-0.231-0.496-0.496h0.496V607.818z"/>
				<path d="M344.375,607.322v-16.54h0.496h0.496v16.54h-0.496H344.375z"/>
				<path d="M344.375,590.781c0-0.265,0.231-0.496,0.496-0.496v0.496H344.375z"/>
				<path d="M344.871,590.285h49.621v0.496v0.496h-49.621v-0.496V590.285z"/>
				<path d="M394.492,590.285c0.265,0,0.496,0.231,0.496,0.496h-0.496V590.285z"/>
				<path d="M394.988,590.781v16.54h-0.496h-0.496v-16.54h0.496H394.988z"/>
				<path d="M394.988,607.322c0,0.265-0.231,0.496-0.496,0.496v-0.496H394.988z"/>
				<path d="M394.492,607.818h-24.811v-0.496v-0.496h24.811v0.496V607.818z"/>
			</g>
			<g>
				<g>
					<g>
						<text transform="matrix(1, 0, 0, 1, 364.422, 606.362)" font-family="'ArialMT'" font-size="21.0065">v</text>
					</g>
				</g>
			</g>
		</g>
	</g>
	<g>
		<desc>Drawing</desc>
		<g>
			<g>
				<path fill="#CCFFFF" d="M415.168,607.322h-20.676v-16.54h41.352v16.54H415.168z"/>
			</g>
			<g>
				<path d="M415.168,607.818h-20.676v-0.496v-0.496h20.676v0.496V607.818z"/>
				<path d="M394.492,607.818c-0.265,0-0.496-0.231-0.496-0.496h0.496V607.818z"/>
				<path d="M393.996,607.322v-16.54h0.496h0.496v16.54h-0.496H393.996z"/>
				<path d="M393.996,590.781c0-0.265,0.231-0.496,0.496-0.496v0.496H393.996z"/>
				<path d="M394.492,590.285h41.352v0.496v0.496h-41.352v-0.496V590.285z"/>
				<path d="M435.844,590.285c0.265,0,0.496,0.231,0.496,0.496h-0.496V590.285z"/>
				<path d="M436.34,590.781v16.54h-0.496h-0.496v-16.54h0.496H436.34z"/>
				<path d="M436.34,607.322c0,0.265-0.231,0.496-0.496,0.496v-0.496H436.34z"/>
				<path d="M435.844,607.818h-20.676v-0.496v-0.496h20.676v0.496V607.818z"/>
			</g>
			<g>
				<g>
					<g>
						<text transform="matrix(1, 0, 0, 1, 407.823, 606.362)" font-family="'ArialMT'" font-size="21.0065">w</text>
					</g>
				</g>
			</g>
		</g>
	</g>
	<g>
		<desc>Drawing</desc>
		<g>
			<g>
				<path fill="#FFFFCC" d="M448.249,607.322h-12.405v-16.54h24.811v16.54H448.249z"/>
			</g>
			<g>
				<path d="M448.249,607.818h-12.405v-0.496v-0.496h12.405v0.496V607.818z"/>
				<path d="M435.844,607.818c-0.265,0-0.496-0.231-0.496-0.496h0.496V607.818z"/>
				<path d="M435.347,607.322v-16.54h0.496h0.496v16.54h-0.496H435.347z"/>
				<path d="M435.347,590.781c0-0.265,0.231-0.496,0.496-0.496v0.496H435.347z"/>
				<path d="M435.844,590.285h24.811v0.496v0.496h-24.811v-0.496V590.285z"/>
				<path d="M460.654,590.285c0.265,0,0.496,0.231,0.496,0.496h-0.496V590.285z"/>
				<path d="M461.15,590.781v16.54h-0.496h-0.496v-16.54h0.496H461.15z"/>
				<path d="M461.15,607.322c0,0.265-0.231,0.496-0.496,0.496v-0.496H461.15z"/>
				<path d="M460.654,607.818h-12.405v-0.496v-0.496h12.405v0.496V607.818z"/>
			</g>
			<g>
				<g>
					<g>
						<text transform="matrix(1, 0, 0, 1, 443.055, 606.362)" font-family="'ArialMT'" font-size="21.0065">x</text>
					</g>
				</g>
			</g>
		</g>
	</g>
	<g>
		<desc>Drawing</desc>
		<g>
			<g>
				<path fill="#FFFFCC" d="M402.762,494.283l57.892,96.465H344.871L402.762,494.283z"/>
			</g>
			<g>
				<path d="M402.333,494.052c0.099-0.165,0.265-0.265,0.43-0.265c0.198,0,0.364,0.1,0.43,0.265l-0.43,0.231L402.333,494.052z"/>
				<path d="M403.192,494.548l-57.892,96.465l-0.43-0.265l-0.431-0.231l57.893-96.465l0.43,0.231L403.192,494.548z"/>
				<path d="M344.871,591.244L344.871,591.244c-0.265,0-0.496-0.198-0.496-0.496c0-0.066,0.032-0.166,0.065-0.231l0.431,0.231      V591.244z"/>
				<path d="M344.871,590.252h115.783v0.496v0.496H344.871v-0.496V590.252z"/>
				<path d="M461.085,590.517c0.032,0.065,0.065,0.132,0.065,0.231c0,0.298-0.198,0.496-0.496,0.496v-0.496L461.085,590.517z"/>
				<path d="M460.224,591.013l-57.892-96.465l0.43-0.265l0.43-0.231l57.893,96.465l-0.431,0.231L460.224,591.013z"/>
			</g>
		</g>
	</g>
	<g>
		<desc>Drawing</desc>
		<g>
			<g>
				<path d="M403.225,494.416l-0.43,1.621l-0.496-0.133l-0.464-0.132l0.431-1.621l0.496,0.132L403.225,494.416z"/>
				<path d="M402.333,497.657l-0.431,1.654l-0.463-0.132l-0.496-0.133l0.463-1.654l0.463,0.133L402.333,497.657z"/>
				<path d="M401.472,500.933l-0.463,1.621l-0.464-0.133l-0.496-0.132l0.463-1.621l0.464,0.133L401.472,500.933z"/>
				<path d="M400.579,504.175l-0.463,1.621l-0.463-0.133l-0.496-0.132l0.463-1.621l0.463,0.132L400.579,504.175z"/>
				<path d="M399.686,507.449l-0.431,1.621l-0.496-0.132l-0.463-0.133l0.43-1.621l0.496,0.133L399.686,507.449z"/>
				<path d="M398.793,510.692l-0.43,1.621l-0.497-0.132l-0.463-0.133l0.431-1.621l0.496,0.133L398.793,510.692z"/>
				<path d="M397.899,513.934l-0.43,1.654l-0.496-0.133l-0.463-0.132l0.43-1.654l0.496,0.132L397.899,513.934z"/>
				<path d="M397.04,517.209l-0.464,1.62l-0.463-0.132l-0.496-0.133l0.463-1.62l0.463,0.132L397.04,517.209z"/>
				<path d="M396.146,520.45l-0.463,1.621l-0.464-0.132l-0.496-0.133l0.464-1.621l0.463,0.133L396.146,520.45z"/>
				<path d="M395.253,523.726l-0.298,1.025l-0.463-0.132l-0.496-0.133l0.298-1.025l0.463,0.132L395.253,523.726z"/>
				<path d="M394.227,525.016c-0.132-0.066-0.231-0.231-0.231-0.396c0-0.066,0-0.1,0-0.133l0.496,0.133L394.227,525.016z"/>
				<path d="M394.757,524.189l0.529,0.364l-0.265,0.396l-0.298,0.431l-0.496-0.364l0.265-0.396L394.757,524.189z"/>
				<path d="M396.676,525.479l1.423,0.927l-0.298,0.43l-0.265,0.397l-1.39-0.927l0.265-0.43L396.676,525.479z"/>
				<path d="M399.487,527.365l1.423,0.927l-0.298,0.396l-0.265,0.431l-1.39-0.96l0.265-0.396L399.487,527.365z"/>
				<path d="M402.3,529.217l1.422,0.927l-0.298,0.43l-0.265,0.397l-1.422-0.927l0.298-0.396L402.3,529.217z"/>
				<path d="M405.111,531.103l1.39,0.927l-0.265,0.396l-0.265,0.43l-1.423-0.926l0.298-0.43L405.111,531.103z"/>
				<path d="M407.923,532.955l1.39,0.927l-0.265,0.43l-0.265,0.396l-1.422-0.926l0.297-0.397L407.923,532.955z"/>
				<path d="M410.735,534.841l1.39,0.926l-0.265,0.431l-0.265,0.396l-1.423-0.926l0.265-0.431L410.735,534.841z"/>
				<path d="M413.547,536.694l1.39,0.959l-0.265,0.397l-0.298,0.43l-1.39-0.959l0.265-0.397L413.547,536.694z"/>
				<path d="M416.326,538.579l1.422,0.926l-0.265,0.431l-0.298,0.396l-1.389-0.926l0.265-0.431L416.326,538.579z"/>
				<path d="M419.137,540.432l0.43,0.298l-0.265,0.43l-0.265,0.397l-0.43-0.298l0.265-0.397L419.137,540.432z"/>
				<path d="M419.567,540.73c0.133,0.099,0.232,0.231,0.232,0.43c0,0.033,0,0.066,0,0.133l-0.497-0.133L419.567,540.73z"/>
				<path d="M419.8,541.292l-0.331,1.124l-0.463-0.132l-0.497-0.133l0.331-1.124l0.463,0.132L419.8,541.292z"/>
				<path d="M419.038,544.037l-0.463,1.621l-0.463-0.132l-0.463-0.133l0.43-1.621l0.463,0.133L419.038,544.037z"/>
				<path d="M418.145,547.28l-0.431,1.654l-0.496-0.133l-0.463-0.132l0.43-1.654l0.497,0.132L418.145,547.28z"/>
				<path d="M417.252,550.555l-0.43,1.621l-0.496-0.133l-0.464-0.133l0.431-1.62l0.496,0.132L417.252,550.555z"/>
				<path d="M416.359,553.796l-0.431,1.621l-0.463-0.132l-0.496-0.133l0.43-1.621l0.496,0.133L416.359,553.796z"/>
			</g>
		</g>
	</g>
	<g>
		<desc>Drawing</desc>
		<g>
			<g>
				<path fill="#CCFFFF" d="M415.168,556.311l20.676,34.471l-41.318,0.033L415.168,556.311z"/>
			</g>
			<g>
				<path d="M414.738,556.079c0.099-0.166,0.231-0.265,0.43-0.265c0.165,0,0.331,0.099,0.43,0.231l-0.43,0.265L414.738,556.079z"/>
				<path d="M415.597,556.575l-20.675,34.471l-0.397-0.231l-0.43-0.265l20.643-34.471l0.43,0.231L415.597,556.575z"/>
				<path d="M394.525,591.311L394.525,591.311c-0.298,0-0.496-0.231-0.496-0.496c0-0.1,0-0.199,0.066-0.265l0.43,0.265V591.311z"/>
				<path d="M394.492,590.318l41.352-0.032v0.496v0.496l-41.318,0.033v-0.496L394.492,590.318z"/>
				<path d="M436.273,590.517c0.033,0.065,0.066,0.165,0.066,0.265c0,0.265-0.231,0.463-0.496,0.496v-0.496L436.273,590.517z"/>
				<path d="M435.414,591.013l-20.676-34.438l0.43-0.265l0.43-0.265l20.676,34.471l-0.43,0.265L435.414,591.013z"/>
			</g>
		</g>
	</g>

	<g>
				<rect x="59" y="627.568" fill="none" width="256.412" height="57.925"/>
				<text transform="matrix(1, 0, 0, 1, 69, 650.757)" font-family="'ArialMT'" font-size="21.0065">Generating uv wx y</text>
				<text transform="matrix(1, 0, 0, 1, 215, 643.81)" font-family="'ArialMT'" font-size="12.1738">0</text>
				<text transform="matrix(1, 0, 0, 1, 251, 643.81)" font-family="'ArialMT'" font-size="12.1738">0</text>
	</g>

	<g>
				<rect x="299" y="627.568" fill="none" width="256.412" height="57.925"/>
				<text transform="matrix(1, 0, 0, 1, 309, 650.757)" font-family="'ArialMT'" font-size="21.0065">Generating uv wx y</text>
				<text transform="matrix(1, 0, 0, 1, 455, 643.81)" font-family="'ArialMT'" font-size="12.1738">2</text>
				<text transform="matrix(1, 0, 0, 1, 491, 643.81)" font-family="'ArialMT'" font-size="12.1738">2</text>
	</g>

	<g>
		<desc>Drawing</desc>
		<g>
			<g>
				<rect x="315.925" y="197.514" fill="none" width="31.46" height="57.925"/>
			</g>
			<g>
				<g>
					<g>
						<text transform="matrix(1, 0, 0, 1, 324.195, 220.703)" font-family="'ArialMT'" font-size="21.0065">h</text>
					</g>
				</g>
			</g>
		</g>
	</g>
	<g>
		<desc>Drawing</desc>
		<g>
			<g>
				<rect x="410.206" y="539.903" fill="none" width="41.384" height="42.377"/>
			</g>
			<g>
						<text transform="matrix(1, 0, 0, 1, 418.972, 563.588)" font-family="'ArialMT'" font-size="21.0065">N</text>
			</g>
		</g>
	</g>
	<g>
		<desc>Drawing</desc>
		<g>
			<g>
				<path d="M414.969,554.557c1.157,0,2.051,0.86,2.051,2.019c0,1.157-0.894,2.051-2.051,2.051c-1.158,0-2.019-0.894-2.019-2.051      C412.951,555.417,413.811,554.557,414.969,554.557z M412.951,554.557L412.951,554.557z M417.087,558.693L417.087,558.693z"/>
			</g>
			<g>
				<rect x="412.488" y="554.094" fill="none" width="5.095" height="5.095"/>
			</g>
		</g>
	</g>
</g>
</svg>
